# xmcd CD database file
#
# Track frame offsets:
#	225
#	45877
#	64869
#	94580
#	155123
#	191276
#	212144
#	218959
#	224645
#	231904
#	242733
#	248114
#	260024
#	275529
#
# Disc length: 3887 seconds
#
# Revision: 7
# Processed by: cddbd v1.5.2PL0 Copyright (c) Steve Scherf et al.
# Submitted via: CDex 1.77
#
DISCID=d50f2c0e
DTITLE=Igor Stravinsky - Petruchka  (1911) ~ Apollon Musagete (1928)
DYEAR=1900
DGENRE=Ballet
TTITLE0=Petruchka - Tableau I: Shrove-tide Fair  {Sir Charles Macherras, London Symphony Orchestra}
TTITLE1=Petruchka - Tableau II: Petruchka's Room
TTITLE2=Petruchka - Tableau III: The Moor's Room
TTITLE3=Petruchka - Tableau IV: Shrove-tide Fair
TTITLE4=Apollon Musagete - Scene 1 - Naissance d'Apollon  {John Lubbock, Orchestra of St }John's Smith Square}
TTITLE5=Apollon Musagete - Scene 2 - Variation d'Apollon
TTITLE6=Apollon Musagete - Scene 2 - as d'action
TTITLE7=Apollon Musagete - Scene 2 - Variation de Calliope
TTITLE8=Apollon Musagete - Scene 2 - Variation de Polymnie
TTITLE9=Apollon Musagete - Scene 2 - Variation de Terpsichore
TTITLE10=Apollon Musagete - Scene 2 - Variation d'Apollon
TTITLE11=Apollon Musagete - Scene 2 - Pas de Deux
TTITLE12=Apollon Musagete - Scene 2 - Coda
TTITLE13=Apollon Musagete - Scene 2 - Apotheose
EXTD=
EXTT0=
EXTT1=
EXTT2=
EXTT3=
EXTT4=
EXTT5=
EXTT6=
EXTT7=
EXTT8=
EXTT9=
EXTT10=
EXTT11=
EXTT12=
EXTT13=
PLAYORDER=
